<svg width="840" height="182" viewBox="0 0 840 182" fill="none" xmlns="http://www.w3.org/2000/svg">
<path fill-rule="evenodd" clip-rule="evenodd" d="M176.407 32.0227C176.897 22.876 173.267 13.6128 165.761 7.22475C153.001 -3.63491 133.871 -2.07457 123.032 10.7097C118.766 15.7402 116.421 21.7589 115.922 27.8712C115.161 34.302 115.903 40.7343 116.745 48.0242C117.955 58.5152 119.371 70.7803 116.806 87.3674C114.685 101.079 108.805 112.5 103.483 122.839C99.7335 130.125 96.2609 136.872 94.5743 143.504C91.5216 154.551 94.8727 166.866 104.166 174.776C116.926 185.634 136.056 184.075 146.895 171.291C150.904 166.562 153.217 160.96 153.895 155.229C155.206 147.058 154.296 138.209 153.339 128.9C152.168 117.504 150.925 105.419 153.597 93.0431C157.177 76.4539 162.667 66.2571 167.377 57.5057C171.366 50.0949 174.797 43.7208 176.039 35.3808C176.216 34.3145 176.335 33.2416 176.399 32.1672C176.402 32.12 176.405 32.0728 176.408 32.0249L176.407 32.0227Z" fill="url(#paint0_linear_8520_2372)"/>
<path fill-rule="evenodd" clip-rule="evenodd" d="M159.857 57.1908C168.001 53.0627 174.188 45.3196 175.955 35.6593C178.959 19.2374 168.055 3.49472 151.601 0.497057C145.125 -0.683572 138.754 0.286885 133.224 2.89961C127.294 5.44227 122.11 9.28356 116.237 13.6366C107.783 19.9018 97.8976 27.2268 82.2925 33.2656C69.3933 38.2573 56.5929 38.8642 45.0055 39.4128C36.8338 39.8007 29.2655 40.1591 22.6929 42.0078C11.6368 44.8735 2.68431 53.8923 0.497708 65.8453C-2.50622 82.2672 8.39704 98.0099 24.8513 101.008C30.9406 102.117 36.9369 101.326 42.2266 99.0563C49.9333 96.1213 57.1176 90.935 64.6763 85.478C73.9313 78.7961 83.7472 71.7101 95.7686 67.8585C111.883 62.6958 123.431 62.361 133.341 62.0748C141.737 61.8307 148.959 61.622 156.788 58.5396C157.789 58.1642 158.768 57.7365 159.72 57.2601C159.765 57.238 159.811 57.2166 159.856 57.1945L159.857 57.1908Z" fill="url(#paint1_linear_8520_2372)"/>
<path fill-rule="evenodd" clip-rule="evenodd" d="M107.631 176.94C115.309 181.94 125.152 183.424 134.447 180.104C150.248 174.461 158.483 157.078 152.839 141.278C150.622 135.069 146.592 130.03 141.558 126.54C136.363 122.655 130.412 120.079 123.666 117.158C113.971 112.963 102.637 108.057 89.5543 97.5353C78.7397 88.8382 71.791 78.0235 65.5012 68.2333C61.0715 61.3389 56.9682 54.9524 52.0712 50.1734C44.0319 41.9951 31.6808 38.741 20.1698 42.8515C4.36941 48.4944 -3.86495 65.8776 1.77811 81.6777C3.8649 87.5211 7.55735 92.3288 12.1816 95.7834C18.6031 101.008 26.7249 104.645 35.2705 108.471C45.7284 113.153 56.8201 118.119 66.2021 126.627C78.7787 138.03 84.8614 147.894 90.0819 156.359C94.4918 163.51 98.2863 169.663 104.861 174.904C105.724 175.617 106.626 176.282 107.558 176.893C107.582 176.909 107.606 176.925 107.629 176.94H107.631Z" fill="url(#paint2_linear_8520_2372)"/>
<path d="M665.539 79.4845V70.0041C665.539 58.3039 661.975 49.6977 654.848 44.1838C647.855 38.5353 638.239 35.7114 626.002 35.7114C618.74 35.7114 612.218 36.6524 606.435 38.5353C600.652 40.2835 596.013 42.1663 592.516 44.1838C589.692 45.932 587.675 47.7471 586.465 49.6299C585.389 51.3781 584.851 53.6641 584.851 56.4888V79.4845V90.5791V125.275C584.851 127.83 585.59 129.713 587.07 130.924C588.549 131.999 590.701 132.537 593.525 132.537C595.139 132.537 596.618 132.335 597.962 131.932C599.307 131.663 600.316 131.394 600.989 131.125V90.5791V79.4845V55.6816C603.947 53.9335 607.51 52.3869 611.679 51.0419C615.848 49.6977 620.623 49.0252 626.002 49.0252C633.129 49.0252 638.778 50.7734 642.947 54.2697C647.249 57.7661 649.401 63.2799 649.401 70.8105V79.4845V90.5791V125.275C649.401 127.83 650.074 129.713 651.418 130.924C652.898 131.999 655.117 132.537 658.075 132.537C659.554 132.537 660.966 132.335 662.311 131.932C663.791 131.663 664.867 131.394 665.539 131.125V90.5791V79.4845Z" fill="#24262E"/>
<path d="M422.013 131.748C419.457 131.748 417.306 130.941 415.557 129.327C413.943 127.579 413.136 125.428 413.136 122.872V9.50537H429.678V117.628H487.571C488.243 118.166 488.781 119.04 489.185 120.25C489.588 121.461 489.79 122.806 489.79 124.284C489.79 126.57 489.185 128.386 487.975 129.731C486.765 131.076 485.151 131.748 483.134 131.748H422.013Z" fill="#24262E"/>
<path d="M403.341 85.1502C403.341 95.1014 401.458 103.775 397.692 111.172C393.927 118.568 388.615 124.283 381.756 128.318C374.898 132.353 366.829 134.369 357.55 134.369C348.271 134.369 340.135 132.353 333.142 128.318C326.284 124.283 320.972 118.568 317.206 111.172C313.441 103.775 311.558 95.1014 311.558 85.1502C311.558 75.0643 313.441 66.3903 317.206 59.1282C321.106 51.7315 326.485 46.0161 333.343 41.9819C340.337 37.9477 348.405 35.9302 357.55 35.9302C366.695 35.9302 374.697 37.9477 381.555 41.9819C388.414 46.0161 393.725 51.7315 397.491 59.1282C401.39 66.3903 403.341 75.0643 403.341 85.1502ZM357.55 49.2439C348.54 49.2439 341.346 52.471 335.966 58.9267C330.721 65.2469 328.099 73.9878 328.099 85.1502C328.099 96.4464 330.654 105.255 335.764 111.575C341.009 117.895 348.271 121.056 357.55 121.056C366.695 121.056 373.823 117.895 378.932 111.575C384.177 105.12 386.799 96.3117 386.799 85.1502C386.799 73.9878 384.177 65.2469 378.932 58.9267C373.823 52.471 366.695 49.2439 357.55 49.2439Z" fill="#24262E"/>
<path fill-rule="evenodd" clip-rule="evenodd" d="M262.024 128.923C254.224 128.923 247.029 127.444 240.44 124.485C233.85 121.393 228.539 116.417 224.504 109.558C220.469 102.7 218.453 93.6228 218.453 82.3257C218.453 72.106 220.402 63.5659 224.302 56.7078C228.337 49.8489 233.85 44.6713 240.844 41.175C247.836 37.6786 255.838 35.9304 264.848 35.9304C271.034 35.9304 276.682 36.7376 281.793 38.3511C287.037 39.8308 291.408 41.7128 294.904 43.9996C296.922 45.3438 298.535 46.8904 299.745 48.6386C301.09 50.2529 301.763 52.2696 301.763 54.6903V113.593V117.022V135.782C301.763 144.658 299.813 151.785 295.913 157.164C292.147 162.544 286.903 166.443 280.178 168.864C273.589 171.285 266.125 172.495 257.787 172.495C251.064 172.495 245.281 171.755 240.44 170.276C235.599 168.797 232.304 167.587 230.556 166.645C226.521 164.359 224.504 161.468 224.504 157.971C224.504 156.088 224.908 154.474 225.715 153.129C226.656 151.919 227.799 150.978 229.143 150.306C231.968 152.458 235.934 154.408 241.045 156.156C246.29 158.039 251.87 158.98 257.787 158.98C266.798 158.98 273.657 157.03 278.363 153.129C283.205 149.23 285.625 143.111 285.625 134.774V122.054C283.69 123.539 281.134 124.954 277.96 126.301C273.657 128.049 268.344 128.923 262.024 128.923ZM276.951 51.0593C280.448 52.135 283.339 53.413 285.625 54.8919V107.192C283.639 109.126 281.151 110.923 278.162 112.584C274.531 114.601 269.756 115.61 263.839 115.61C255.636 115.61 248.71 113.054 243.063 107.944C237.549 102.835 234.792 94.2276 234.792 82.1241C234.792 71.2311 237.549 63.028 243.063 57.5141C248.576 52.0011 255.838 49.2442 264.848 49.2442C269.555 49.2442 273.589 49.8489 276.951 51.0593Z" fill="#24262E"/>
<path fill-rule="evenodd" clip-rule="evenodd" d="M534.431 132.05C526.457 132.05 519.102 130.53 512.365 127.491C505.628 124.313 500.198 119.203 496.073 112.158C491.949 105.113 489.886 95.7883 489.886 84.1844C489.886 73.6864 491.88 64.9144 495.867 57.8695C499.992 50.8245 505.628 45.5066 512.777 41.9147C519.927 38.3229 528.107 36.5273 537.318 36.5273C543.642 36.5273 549.417 37.3565 554.641 39.0141C560.003 40.533 564.471 42.4672 568.046 44.8153C570.108 46.197 571.758 47.7852 572.995 49.5816C574.37 51.2391 575.057 53.3113 575.057 55.7973V119.825V132.05C575.057 132.05 562.349 135.219 559.796 129.355C558.695 126.825 558.559 124.994 558.559 124.994C556.58 126.519 553.968 127.972 550.722 129.355C546.323 131.152 540.893 132.05 534.431 132.05ZM558.559 56.0046V109.727C556.528 111.713 553.985 113.56 550.929 115.266C547.217 117.338 542.337 118.373 536.287 118.373C527.901 118.373 520.821 115.749 515.046 110.5C509.409 105.251 506.591 96.4102 506.591 83.9779C506.591 72.7886 509.409 64.3619 515.046 58.6987C520.683 53.0347 528.107 50.2026 537.318 50.2026C542.13 50.2026 546.255 50.8245 549.692 52.0675C553.266 53.1726 556.222 54.485 558.559 56.0046Z" fill="#24262E"/>
<path fill-rule="evenodd" clip-rule="evenodd" d="M770.258 107.736L818.16 68.7122C820.066 67.2598 821.276 65.684 821.796 63.9843C822.253 62.1708 821.732 60.0189 820.226 57.5277C816.133 50.7333 810.982 45.6516 804.782 42.2809C798.622 38.7293 791.989 37.0815 784.883 37.3376C777.89 37.5257 770.929 39.696 764.007 43.8494C758.56 47.1177 754.09 51.1095 750.598 55.8263C747.033 60.4294 744.606 65.5072 743.316 71.0603C742.138 76.5445 742.122 82.4137 743.268 88.6662C744.454 94.7379 751.032 106.936 751.032 106.936C751.032 106.936 740.618 114.444 736.613 116.139C732.608 117.834 728.262 118.984 722.85 118.984C713.874 118.984 706.417 115.951 700.477 109.885C694.537 103.819 691.567 95.1164 691.567 83.7757C691.567 72.5671 694.405 63.9306 700.08 57.8645C705.889 51.7985 713.478 48.7654 722.85 48.7654C728.394 48.7654 733.617 50.0054 735.411 50.9164C735.411 50.9164 747.117 44.5959 741.419 40.913C737.206 38.1893 731.037 35.7114 722.85 35.7114C713.743 35.7114 705.559 37.4256 698.299 40.854C691.171 44.4144 685.561 49.7546 681.469 56.8754C677.378 63.9962 675.332 72.9633 675.332 83.7757C675.332 94.457 677.443 103.358 681.667 110.478C685.891 117.731 691.567 123.138 698.695 126.698C705.955 130.39 713.874 132.236 722.454 132.236C730.636 132.236 736.613 130.396 741.419 128.143C746.626 125.994 755.037 120.54 758.242 117.339C761.769 121.326 765.799 125.049 769.905 127.49C777.179 131.608 784.949 133.345 793.208 132.702C801.587 131.992 810.15 129.016 818.89 123.773C823.881 120.778 828.022 117.522 831.314 114.006C834.719 110.423 837.066 107.01 838.356 103.769C839.694 100.347 839.718 97.5592 838.42 95.4073C837.603 94.0493 836.489 93.0985 835.079 92.556C833.718 91.8317 832.172 91.4484 830.441 91.4044C829.264 94.5782 827.221 98.1147 824.321 102.015C821.421 105.915 817.584 109.295 812.818 112.155C803.846 117.533 795.355 119.467 787.336 117.957C781.152 116.643 775.409 113.204 770.258 107.736ZM805.855 62.9111C801.65 56.9563 796.427 53.1542 790.178 51.5056C783.858 49.7442 777.297 50.9062 770.488 54.9916C763.455 59.213 759.145 65.2671 757.559 73.1538C756.061 80.6547 757.721 88.6278 763.048 97.7325L805.855 62.9111Z" fill="#24262E"/>
<defs>
<linearGradient id="paint0_linear_8520_2372" x1="112.297" y1="23.8273" x2="98.5696" y2="185.54" gradientUnits="userSpaceOnUse">
<stop stop-color="#222D56"/>
<stop offset="1" stop-color="#4163DD"/>
</linearGradient>
<linearGradient id="paint1_linear_8520_2372" x1="177.324" y1="36.3584" x2="-12.6794" y2="74.3317" gradientUnits="userSpaceOnUse">
<stop stop-color="#3F56B6"/>
<stop offset="1" stop-color="#344384"/>
</linearGradient>
<linearGradient id="paint2_linear_8520_2372" x1="147.307" y1="171.26" x2="7.31457" y2="51.6911" gradientUnits="userSpaceOnUse">
<stop stop-color="#4B66D6"/>
<stop offset="1" stop-color="#3B4EA1"/>
</linearGradient>
</defs>
</svg>
